<?xml version="1.0" encoding="UTF-8" ?>
<svg version="1.1" width="45" height="7" xmlns="http://www.w3.org/2000/svg" shape-rendering="crispEdges">
<rect x="1" y="0" width="1" height="1" fill="#020202" />
<rect x="2" y="0" width="1" height="1" fill="#020202" />
<rect x="3" y="0" width="1" height="1" fill="#020202" />
<rect x="4" y="0" width="1" height="1" fill="#020202" />
<rect x="9" y="0" width="1" height="1" fill="#020202" />
<rect x="10" y="0" width="1" height="1" fill="#020202" />
<rect x="11" y="0" width="1" height="1" fill="#020202" />
<rect x="13" y="0" width="1" height="1" fill="#020202" />
<rect x="14" y="0" width="1" height="1" fill="#020202" />
<rect x="15" y="0" width="1" height="1" fill="#020202" />
<rect x="16" y="0" width="1" height="1" fill="#020202" />
<rect x="18" y="0" width="1" height="1" fill="#020202" />
<rect x="19" y="0" width="1" height="1" fill="#020202" />
<rect x="20" y="0" width="1" height="1" fill="#020202" />
<rect x="21" y="0" width="1" height="1" fill="#020202" />
<rect x="22" y="0" width="1" height="1" fill="#020202" />
<rect x="25" y="0" width="1" height="1" fill="#020202" />
<rect x="26" y="0" width="1" height="1" fill="#020202" />
<rect x="27" y="0" width="1" height="1" fill="#020202" />
<rect x="31" y="0" width="1" height="1" fill="#020202" />
<rect x="32" y="0" width="1" height="1" fill="#020202" />
<rect x="33" y="0" width="1" height="1" fill="#020202" />
<rect x="34" y="0" width="1" height="1" fill="#020202" />
<rect x="35" y="0" width="1" height="1" fill="#020202" />
<rect x="37" y="0" width="1" height="1" fill="#020202" />
<rect x="38" y="0" width="1" height="1" fill="#020202" />
<rect x="41" y="0" width="1" height="1" fill="#020202" />
<rect x="42" y="0" width="1" height="1" fill="#020202" />
<rect x="43" y="0" width="1" height="1" fill="#020202" />
<rect x="44" y="0" width="1" height="1" fill="#020202" />
<rect x="0" y="1" width="1" height="1" fill="#020202" />
<rect x="1" y="1" width="1" height="1" fill="#020202" />
<rect x="2" y="1" width="1" height="1" fill="#020202" />
<rect x="3" y="1" width="1" height="1" fill="#020202" />
<rect x="4" y="1" width="1" height="1" fill="#020202" />
<rect x="5" y="1" width="1" height="1" fill="#020202" />
<rect x="8" y="1" width="1" height="1" fill="#020202" />
<rect x="16" y="1" width="1" height="1" fill="#020202" />
<rect x="18" y="1" width="1" height="1" fill="#020202" />
<rect x="20" y="1" width="1" height="1" fill="#020202" />
<rect x="22" y="1" width="1" height="1" fill="#020202" />
<rect x="24" y="1" width="1" height="1" fill="#020202" />
<rect x="28" y="1" width="1" height="1" fill="#020202" />
<rect x="30" y="1" width="1" height="1" fill="#020202" />
<rect x="34" y="1" width="1" height="1" fill="#020202" />
<rect x="36" y="1" width="1" height="1" fill="#020202" />
<rect x="39" y="1" width="1" height="1" fill="#020202" />
<rect x="41" y="1" width="1" height="1" fill="#020202" />
<rect x="44" y="1" width="1" height="1" fill="#020202" />
<rect x="8" y="2" width="1" height="1" fill="#020202" />
<rect x="13" y="2" width="1" height="1" fill="#020202" />
<rect x="14" y="2" width="1" height="1" fill="#020202" />
<rect x="15" y="2" width="1" height="1" fill="#020202" />
<rect x="16" y="2" width="1" height="1" fill="#020202" />
<rect x="18" y="2" width="1" height="1" fill="#020202" />
<rect x="20" y="2" width="1" height="1" fill="#020202" />
<rect x="22" y="2" width="1" height="1" fill="#020202" />
<rect x="24" y="2" width="1" height="1" fill="#020202" />
<rect x="28" y="2" width="1" height="1" fill="#020202" />
<rect x="30" y="2" width="1" height="1" fill="#020202" />
<rect x="31" y="2" width="1" height="1" fill="#020202" />
<rect x="32" y="2" width="1" height="1" fill="#020202" />
<rect x="33" y="2" width="1" height="1" fill="#020202" />
<rect x="36" y="2" width="1" height="1" fill="#020202" />
<rect x="37" y="2" width="1" height="1" fill="#020202" />
<rect x="38" y="2" width="1" height="1" fill="#020202" />
<rect x="39" y="2" width="1" height="1" fill="#020202" />
<rect x="41" y="2" width="1" height="1" fill="#020202" />
<rect x="44" y="2" width="1" height="1" fill="#020202" />
<rect x="0" y="3" width="1" height="1" fill="#020202" />
<rect x="1" y="3" width="1" height="1" fill="#020202" />
<rect x="2" y="3" width="1" height="1" fill="#020202" />
<rect x="3" y="3" width="1" height="1" fill="#020202" />
<rect x="4" y="3" width="1" height="1" fill="#020202" />
<rect x="5" y="3" width="1" height="1" fill="#020202" />
<rect x="8" y="3" width="1" height="1" fill="#020202" />
<rect x="13" y="3" width="1" height="1" fill="#020202" />
<rect x="16" y="3" width="1" height="1" fill="#020202" />
<rect x="18" y="3" width="1" height="1" fill="#020202" />
<rect x="20" y="3" width="1" height="1" fill="#020202" />
<rect x="22" y="3" width="1" height="1" fill="#020202" />
<rect x="24" y="3" width="1" height="1" fill="#020202" />
<rect x="28" y="3" width="1" height="1" fill="#020202" />
<rect x="30" y="3" width="1" height="1" fill="#020202" />
<rect x="36" y="3" width="1" height="1" fill="#020202" />
<rect x="41" y="3" width="1" height="1" fill="#020202" />
<rect x="44" y="3" width="1" height="1" fill="#020202" />
<rect x="1" y="4" width="1" height="1" fill="#020202" />
<rect x="2" y="4" width="1" height="1" fill="#020202" />
<rect x="3" y="4" width="1" height="1" fill="#020202" />
<rect x="4" y="4" width="1" height="1" fill="#020202" />
<rect x="9" y="4" width="1" height="1" fill="#020202" />
<rect x="10" y="4" width="1" height="1" fill="#020202" />
<rect x="11" y="4" width="1" height="1" fill="#020202" />
<rect x="13" y="4" width="1" height="1" fill="#020202" />
<rect x="14" y="4" width="1" height="1" fill="#020202" />
<rect x="15" y="4" width="1" height="1" fill="#020202" />
<rect x="16" y="4" width="1" height="1" fill="#020202" />
<rect x="18" y="4" width="1" height="1" fill="#020202" />
<rect x="20" y="4" width="1" height="1" fill="#020202" />
<rect x="22" y="4" width="1" height="1" fill="#020202" />
<rect x="25" y="4" width="1" height="1" fill="#020202" />
<rect x="26" y="4" width="1" height="1" fill="#020202" />
<rect x="27" y="4" width="1" height="1" fill="#020202" />
<rect x="30" y="4" width="1" height="1" fill="#020202" />
<rect x="31" y="4" width="1" height="1" fill="#020202" />
<rect x="32" y="4" width="1" height="1" fill="#020202" />
<rect x="33" y="4" width="1" height="1" fill="#020202" />
<rect x="34" y="4" width="1" height="1" fill="#020202" />
<rect x="37" y="4" width="1" height="1" fill="#020202" />
<rect x="38" y="4" width="1" height="1" fill="#020202" />
<rect x="39" y="4" width="1" height="1" fill="#020202" />
<rect x="41" y="4" width="1" height="1" fill="#020202" />
<rect x="44" y="4" width="1" height="1" fill="#020202" />
<rect x="30" y="5" width="1" height="1" fill="#020202" />
<rect x="34" y="5" width="1" height="1" fill="#020202" />
<rect x="30" y="6" width="1" height="1" fill="#020202" />
<rect x="31" y="6" width="1" height="1" fill="#020202" />
<rect x="32" y="6" width="1" height="1" fill="#020202" />
<rect x="33" y="6" width="1" height="1" fill="#020202" />
</svg>